<svg width="16" height="16" viewBox="0 0 16 16" fill="none" xmlns="http://www.w3.org/2000/svg">
<path fill-rule="evenodd" clip-rule="evenodd" d="M7.99999 2.33301C6.49701 2.33301 5.05558 2.93007 3.99282 3.99284C2.93005 5.05561 2.33299 6.49703 2.33299 8.00001C2.33299 9.50299 2.93005 10.9444 3.99282 12.0072C5.05558 13.07 6.49701 13.667 7.99999 13.667C9.50297 13.667 10.9444 13.07 12.0072 12.0072C13.0699 10.9444 13.667 9.50299 13.667 8.00001C13.667 6.49703 13.0699 5.05561 12.0072 3.99284C10.9444 2.93007 9.50297 2.33301 7.99999 2.33301ZM0.332989 8.00001C0.321406 6.98587 0.511151 5.9795 0.891233 5.0392C1.27132 4.0989 1.83418 3.24335 2.54723 2.52211C3.26028 1.80087 4.10934 1.22827 5.04524 0.837475C5.98114 0.446678 6.98528 0.245453 7.99949 0.245453C9.0137 0.245453 10.0178 0.446678 10.9537 0.837475C11.8896 1.22827 12.7387 1.80087 13.4517 2.52211C14.1648 3.24335 14.7277 4.0989 15.1077 5.0392C15.4878 5.9795 15.6776 6.98587 15.666 8.00001C15.6429 10.0181 14.8251 11.9458 13.3898 13.3647C11.9546 14.7837 10.0177 15.5795 7.99949 15.5795C5.98124 15.5795 4.04439 14.7837 2.60915 13.3647C1.1739 11.9458 0.356038 10.0181 0.332989 8.00001ZM7.99999 4.33301C8.26521 4.33301 8.51956 4.43837 8.7071 4.62591C8.89463 4.81344 8.99999 5.0678 8.99999 5.33301V8.00001C8.99999 8.26523 8.89463 8.51958 8.7071 8.70712C8.51956 8.89466 8.26521 9.00001 7.99999 9.00001C7.73477 9.00001 7.48042 8.89466 7.29288 8.70712C7.10535 8.51958 6.99999 8.26523 6.99999 8.00001V5.33301C6.99999 5.0678 7.10535 4.81344 7.29288 4.62591C7.48042 4.43837 7.73477 4.33301 7.99999 4.33301ZM7.99999 9.66701C7.73477 9.66701 7.48042 9.77237 7.29288 9.95991C7.10535 10.1474 6.99999 10.4018 6.99999 10.667C6.99999 10.9322 7.10535 11.1866 7.29288 11.3741C7.48042 11.5617 7.73477 11.667 7.99999 11.667H8.00699C8.27221 11.667 8.52656 11.5617 8.7141 11.3741C8.90163 11.1866 9.00699 10.9322 9.00699 10.667C9.00699 10.4018 8.90163 10.1474 8.7141 9.95991C8.52656 9.77237 8.27221 9.66701 8.00699 9.66701H7.99999Z" fill="#FFC700"/>
</svg>
