<svg width="16" height="16" viewBox="0 0 16 16" fill="none" xmlns="http://www.w3.org/2000/svg">
<path fill-rule="evenodd" clip-rule="evenodd" d="M6.75065 2.46952C7.94264 2.2001 9.18979 2.32322 10.3061 2.82051C10.8106 3.04525 11.4017 2.81847 11.6265 2.31398C11.8512 1.80949 11.6244 1.21833 11.1199 0.99359C9.60968 0.320795 7.92239 0.154225 6.30972 0.518727C4.69706 0.883228 3.24542 1.75927 2.17132 3.01619C1.09722 4.27312 0.458206 5.84358 0.349579 7.49335C0.240952 9.14313 0.668535 10.7838 1.56856 12.1707C2.46858 13.5576 3.79281 14.6164 5.34376 15.1892C6.89471 15.7621 8.58928 15.8182 10.1747 15.3492C11.7602 14.8802 13.1515 13.9113 14.1413 12.587C15.1311 11.2627 15.6663 9.65384 15.667 8.00049V7.38705C15.667 6.83476 15.2193 6.38705 14.667 6.38705C14.1147 6.38705 13.667 6.83476 13.667 7.38705V7.9996C13.6664 9.2215 13.2708 10.4109 12.5393 11.3897C11.8077 12.3685 10.7793 13.0847 9.60743 13.4313C8.43556 13.778 7.18304 13.7365 6.03667 13.3131C4.8903 12.8897 3.9115 12.1071 3.24626 11.082C2.58101 10.0569 2.26497 8.84417 2.34526 7.62475C2.42555 6.40534 2.89787 5.24454 3.69178 4.3155C4.4857 3.38645 5.55866 2.73894 6.75065 2.46952ZM15.3744 3.37378C15.7648 2.98308 15.7645 2.34992 15.3738 1.95957C14.9831 1.56922 14.3499 1.56951 13.9596 1.96021L7.99968 7.92546L6.70711 6.63289C6.31658 6.24236 5.68342 6.24236 5.29289 6.63289C4.90237 7.02341 4.90237 7.65658 5.29289 8.0471L7.29289 10.0471C7.48048 10.2347 7.73493 10.3401 8.00023 10.34C8.26552 10.3399 8.51992 10.2345 8.70743 10.0468L15.3744 3.37378Z" fill="#4AC99B"/>
</svg>
