<svg width="16" height="15" viewBox="0 0 16 15" fill="none" xmlns="http://www.w3.org/2000/svg">
<path d="M6.855 1.232C7.38281 0.934657 8.00559 0.854281 8.5916 1.00788C9.17761 1.16147 9.68089 1.53699 9.995 2.055L9.998 2.059L15.645 11.486L15.653 11.5C15.8565 11.8529 15.9642 12.2528 15.9652 12.6602C15.9662 13.0675 15.8607 13.4681 15.6589 13.822C15.4572 14.1759 15.1664 14.4708 14.8154 14.6775C14.4643 14.8841 14.0653 14.9953 13.658 15H2.342C1.93468 14.9953 1.53567 14.8841 1.18464 14.6775C0.833613 14.4708 0.542784 14.1759 0.341064 13.822C0.139344 13.4681 0.0337566 13.0675 0.0347977 12.6602C0.0358388 12.2528 0.143472 11.8529 0.346998 11.5L0.354998 11.486L6.002 2.06L6.86 2.574L6.005 2.056C6.213 1.713 6.505 1.429 6.855 1.233V1.232ZM7.716 3.09L2.076 12.505C2.04831 12.5553 2.03405 12.6119 2.0346 12.6693C2.03515 12.7267 2.05049 12.783 2.07913 12.8327C2.10778 12.8825 2.14877 12.924 2.19814 12.9533C2.24751 12.9826 2.3036 12.9987 2.361 13H13.639C13.6963 12.9985 13.7523 12.9823 13.8015 12.953C13.8507 12.9236 13.8916 12.8821 13.9201 12.8323C13.9487 12.7826 13.9639 12.7264 13.9644 12.669C13.9649 12.6117 13.9507 12.5552 13.923 12.505L8.284 3.09C8.25424 3.04139 8.21249 3.00123 8.16277 2.97337C8.11304 2.94551 8.057 2.93088 8 2.93088C7.943 2.93088 7.88695 2.94551 7.83723 2.97337C7.7875 3.00123 7.74576 3.04139 7.716 3.09ZM8 5C8.26521 5 8.51957 5.10536 8.7071 5.29289C8.89464 5.48043 9 5.73478 9 6V8.667C9 8.93222 8.89464 9.18657 8.7071 9.37411C8.51957 9.56164 8.26521 9.667 8 9.667C7.73478 9.667 7.48043 9.56164 7.29289 9.37411C7.10536 9.18657 7 8.93222 7 8.667V6C7 5.73478 7.10536 5.48043 7.29289 5.29289C7.48043 5.10536 7.73478 5 8 5ZM8 10.333C7.73478 10.333 7.48043 10.4384 7.29289 10.6259C7.10536 10.8134 7 11.0678 7 11.333C7 11.5982 7.10536 11.8526 7.29289 12.0401C7.48043 12.2276 7.73478 12.333 8 12.333H8.007C8.27221 12.333 8.52657 12.2276 8.7141 12.0401C8.90164 11.8526 9.007 11.5982 9.007 11.333C9.007 11.0678 8.90164 10.8134 8.7141 10.6259C8.52657 10.4384 8.27221 10.333 8.007 10.333H8Z" fill="#F45725"/>
</svg>
